<mxfile host="50278f0b-2d3e-4ba6-aced-576ccc6c8100" modified="2020-08-23T09:16:00.666Z" agent="5.0 (Windows NT 10.0; Win64; x64) AppleWebKit/537.36 (KHTML, like Gecko) Code/1.48.1 Chrome/78.0.3904.130 Electron/7.3.2 Safari/537.36" etag="CERni3JNi1EK0vV1V72F" version="13.1.3" pages="2">
    <diagram id="6hGFLwfOUW9BJ-s0fimq" name="Page-1">
        <mxGraphModel dx="949" dy="546" grid="1" gridSize="10" guides="1" tooltips="1" connect="1" arrows="1" fold="1" page="1" pageScale="1" pageWidth="1654" pageHeight="1169" math="0" shadow="0">
            <root>
                <mxCell id="0"/>
                <mxCell id="1" parent="0"/>
                <mxCell id="peSFcSjqjw_MBQDFK0Su-24" value="Channel" style="rounded=1;whiteSpace=wrap;html=1;labelPosition=center;verticalLabelPosition=top;align=center;verticalAlign=bottom;" vertex="1" parent="1">
                    <mxGeometry x="120" y="190" width="230" height="460" as="geometry"/>
                </mxCell>
                <mxCell id="peSFcSjqjw_MBQDFK0Su-25" value="Init()" style="rounded=1;whiteSpace=wrap;html=1;" vertex="1" parent="1">
                    <mxGeometry x="175" y="240" width="120" height="40" as="geometry"/>
                </mxCell>
                <mxCell id="peSFcSjqjw_MBQDFK0Su-26" value="Write()" style="rounded=1;whiteSpace=wrap;html=1;fillColor=#1ba1e2;strokeColor=#006EAF;fontColor=#ffffff;" vertex="1" parent="1">
                    <mxGeometry x="175" y="310" width="120" height="40" as="geometry"/>
                </mxCell>
                <mxCell id="peSFcSjqjw_MBQDFK0Su-27" value="Read()" style="rounded=1;whiteSpace=wrap;html=1;fillColor=#008a00;strokeColor=#005700;fontColor=#ffffff;" vertex="1" parent="1">
                    <mxGeometry x="175" y="380" width="120" height="40" as="geometry"/>
                </mxCell>
                <mxCell id="peSFcSjqjw_MBQDFK0Su-30" value="9" style="edgeStyle=orthogonalEdgeStyle;rounded=0;orthogonalLoop=1;jettySize=auto;html=1;exitX=0.5;exitY=0;exitDx=0;exitDy=0;entryX=0.5;entryY=1;entryDx=0;entryDy=0;" edge="1" parent="1" source="peSFcSjqjw_MBQDFK0Su-28" target="peSFcSjqjw_MBQDFK0Su-29">
                    <mxGeometry relative="1" as="geometry"/>
                </mxCell>
                <mxCell id="peSFcSjqjw_MBQDFK0Su-28" value="IRQ()" style="rounded=1;whiteSpace=wrap;html=1;fillColor=#6a00ff;strokeColor=#3700CC;fontColor=#ffffff;" vertex="1" parent="1">
                    <mxGeometry x="175" y="575" width="120" height="40" as="geometry"/>
                </mxCell>
                <mxCell id="peSFcSjqjw_MBQDFK0Su-31" value="8" style="edgeStyle=orthogonalEdgeStyle;rounded=0;orthogonalLoop=1;jettySize=auto;html=1;exitX=0.5;exitY=0;exitDx=0;exitDy=0;entryX=0.5;entryY=1;entryDx=0;entryDy=0;" edge="1" parent="1" source="peSFcSjqjw_MBQDFK0Su-29" target="peSFcSjqjw_MBQDFK0Su-27">
                    <mxGeometry relative="1" as="geometry"/>
                </mxCell>
                <mxCell id="peSFcSjqjw_MBQDFK0Su-29" value="RX buffer" style="rounded=1;whiteSpace=wrap;html=1;fillColor=#60a917;strokeColor=#2D7600;fontColor=#ffffff;" vertex="1" parent="1">
                    <mxGeometry x="175" y="460" width="120" height="80" as="geometry"/>
                </mxCell>
                <mxCell id="peSFcSjqjw_MBQDFK0Su-32" value="Protocol" style="rounded=1;whiteSpace=wrap;html=1;labelPosition=center;verticalLabelPosition=top;align=center;verticalAlign=bottom;" vertex="1" parent="1">
                    <mxGeometry x="440" y="320" width="200" height="160" as="geometry"/>
                </mxCell>
                <mxCell id="peSFcSjqjw_MBQDFK0Su-35" value="Parse()" style="rounded=1;whiteSpace=wrap;html=1;fillColor=#008a00;strokeColor=#005700;fontColor=#ffffff;" vertex="1" parent="1">
                    <mxGeometry x="480" y="410" width="120" height="40" as="geometry"/>
                </mxCell>
                <mxCell id="peSFcSjqjw_MBQDFK0Su-44" style="edgeStyle=orthogonalEdgeStyle;rounded=0;orthogonalLoop=1;jettySize=auto;html=1;exitX=0;exitY=0.5;exitDx=0;exitDy=0;entryX=1;entryY=0.75;entryDx=0;entryDy=0;" edge="1" parent="1" source="peSFcSjqjw_MBQDFK0Su-36" target="peSFcSjqjw_MBQDFK0Su-26">
                    <mxGeometry relative="1" as="geometry"/>
                </mxCell>
                <mxCell id="peSFcSjqjw_MBQDFK0Su-58" value="5" style="edgeLabel;html=1;align=center;verticalAlign=middle;resizable=0;points=[];" vertex="1" connectable="0" parent="peSFcSjqjw_MBQDFK0Su-44">
                    <mxGeometry x="-0.3196" y="-1" relative="1" as="geometry">
                        <mxPoint as="offset"/>
                    </mxGeometry>
                </mxCell>
                <mxCell id="peSFcSjqjw_MBQDFK0Su-36" value="Package()" style="rounded=1;whiteSpace=wrap;html=1;fillColor=#1ba1e2;strokeColor=#006EAF;fontColor=#ffffff;" vertex="1" parent="1">
                    <mxGeometry x="480" y="350" width="120" height="40" as="geometry"/>
                </mxCell>
                <mxCell id="peSFcSjqjw_MBQDFK0Su-37" value="Host" style="rounded=1;whiteSpace=wrap;html=1;labelPosition=center;verticalLabelPosition=top;align=center;verticalAlign=bottom;" vertex="1" parent="1">
                    <mxGeometry x="750" y="190" width="230" height="460" as="geometry"/>
                </mxCell>
                <mxCell id="peSFcSjqjw_MBQDFK0Su-42" style="edgeStyle=orthogonalEdgeStyle;rounded=0;orthogonalLoop=1;jettySize=auto;html=1;exitX=0;exitY=0.75;exitDx=0;exitDy=0;entryX=1;entryY=0.25;entryDx=0;entryDy=0;" edge="1" parent="1" source="peSFcSjqjw_MBQDFK0Su-38" target="peSFcSjqjw_MBQDFK0Su-36">
                    <mxGeometry relative="1" as="geometry">
                        <Array as="points">
                            <mxPoint x="670" y="280"/>
                            <mxPoint x="670" y="360"/>
                        </Array>
                    </mxGeometry>
                </mxCell>
                <mxCell id="peSFcSjqjw_MBQDFK0Su-54" value="2" style="edgeLabel;html=1;align=center;verticalAlign=middle;resizable=0;points=[];" vertex="1" connectable="0" parent="peSFcSjqjw_MBQDFK0Su-42">
                    <mxGeometry x="-0.0645" y="31" relative="1" as="geometry">
                        <mxPoint as="offset"/>
                    </mxGeometry>
                </mxCell>
                <mxCell id="peSFcSjqjw_MBQDFK0Su-43" style="edgeStyle=orthogonalEdgeStyle;rounded=0;orthogonalLoop=1;jettySize=auto;html=1;exitX=0;exitY=0.25;exitDx=0;exitDy=0;entryX=1;entryY=0.25;entryDx=0;entryDy=0;" edge="1" parent="1" source="peSFcSjqjw_MBQDFK0Su-38" target="peSFcSjqjw_MBQDFK0Su-26">
                    <mxGeometry relative="1" as="geometry">
                        <Array as="points">
                            <mxPoint x="390" y="260"/>
                            <mxPoint x="390" y="320"/>
                        </Array>
                    </mxGeometry>
                </mxCell>
                <mxCell id="peSFcSjqjw_MBQDFK0Su-53" value="1" style="edgeLabel;html=1;align=center;verticalAlign=middle;resizable=0;points=[];" vertex="1" connectable="0" parent="peSFcSjqjw_MBQDFK0Su-43">
                    <mxGeometry x="-0.2249" y="2" relative="1" as="geometry">
                        <mxPoint as="offset"/>
                    </mxGeometry>
                </mxCell>
                <mxCell id="peSFcSjqjw_MBQDFK0Su-38" value="Send()" style="rounded=1;whiteSpace=wrap;html=1;fillColor=#1ba1e2;strokeColor=#006EAF;fontColor=#ffffff;" vertex="1" parent="1">
                    <mxGeometry x="805" y="250" width="120" height="40" as="geometry"/>
                </mxCell>
                <mxCell id="peSFcSjqjw_MBQDFK0Su-45" value="4" style="edgeStyle=orthogonalEdgeStyle;rounded=0;orthogonalLoop=1;jettySize=auto;html=1;exitX=0;exitY=0.75;exitDx=0;exitDy=0;entryX=1;entryY=0.5;entryDx=0;entryDy=0;" edge="1" parent="1" source="peSFcSjqjw_MBQDFK0Su-39" target="peSFcSjqjw_MBQDFK0Su-36">
                    <mxGeometry relative="1" as="geometry">
                        <Array as="points">
                            <mxPoint x="703" y="340"/>
                            <mxPoint x="703" y="370"/>
                        </Array>
                    </mxGeometry>
                </mxCell>
                <mxCell id="peSFcSjqjw_MBQDFK0Su-56" style="edgeStyle=orthogonalEdgeStyle;rounded=0;orthogonalLoop=1;jettySize=auto;html=1;exitX=0;exitY=0.25;exitDx=0;exitDy=0;entryX=1;entryY=0.5;entryDx=0;entryDy=0;" edge="1" parent="1" source="peSFcSjqjw_MBQDFK0Su-39" target="peSFcSjqjw_MBQDFK0Su-26">
                    <mxGeometry relative="1" as="geometry">
                        <Array as="points">
                            <mxPoint x="720" y="320"/>
                            <mxPoint x="720" y="290"/>
                            <mxPoint x="420" y="290"/>
                            <mxPoint x="420" y="330"/>
                        </Array>
                    </mxGeometry>
                </mxCell>
                <mxCell id="peSFcSjqjw_MBQDFK0Su-57" value="3" style="edgeLabel;html=1;align=center;verticalAlign=middle;resizable=0;points=[];" vertex="1" connectable="0" parent="peSFcSjqjw_MBQDFK0Su-56">
                    <mxGeometry x="-0.1111" relative="1" as="geometry">
                        <mxPoint as="offset"/>
                    </mxGeometry>
                </mxCell>
                <mxCell id="peSFcSjqjw_MBQDFK0Su-39" value="SendSync()" style="rounded=1;whiteSpace=wrap;html=1;fillColor=#1ba1e2;strokeColor=#006EAF;fontColor=#ffffff;" vertex="1" parent="1">
                    <mxGeometry x="805" y="310" width="120" height="40" as="geometry"/>
                </mxCell>
                <mxCell id="peSFcSjqjw_MBQDFK0Su-40" value="EventHandler()" style="rounded=1;whiteSpace=wrap;html=1;fillColor=#6a00ff;strokeColor=#3700CC;fontColor=#ffffff;" vertex="1" parent="1">
                    <mxGeometry x="805" y="545" width="120" height="40" as="geometry"/>
                </mxCell>
                <mxCell id="peSFcSjqjw_MBQDFK0Su-48" value="11" style="edgeStyle=orthogonalEdgeStyle;rounded=0;orthogonalLoop=1;jettySize=auto;html=1;exitX=0.5;exitY=0;exitDx=0;exitDy=0;entryX=0.5;entryY=1;entryDx=0;entryDy=0;" edge="1" parent="1" source="peSFcSjqjw_MBQDFK0Su-41" target="peSFcSjqjw_MBQDFK0Su-39">
                    <mxGeometry relative="1" as="geometry"/>
                </mxCell>
                <mxCell id="peSFcSjqjw_MBQDFK0Su-50" value="10" style="edgeStyle=orthogonalEdgeStyle;rounded=0;orthogonalLoop=1;jettySize=auto;html=1;exitX=0.5;exitY=1;exitDx=0;exitDy=0;entryX=0.5;entryY=0;entryDx=0;entryDy=0;" edge="1" parent="1" source="peSFcSjqjw_MBQDFK0Su-41" target="peSFcSjqjw_MBQDFK0Su-49">
                    <mxGeometry relative="1" as="geometry"/>
                </mxCell>
                <mxCell id="peSFcSjqjw_MBQDFK0Su-41" value="ReceiverHandler()" style="rounded=1;whiteSpace=wrap;html=1;fillColor=#008a00;strokeColor=#005700;fontColor=#ffffff;" vertex="1" parent="1">
                    <mxGeometry x="805" y="380" width="120" height="40" as="geometry"/>
                </mxCell>
                <mxCell id="peSFcSjqjw_MBQDFK0Su-47" style="edgeStyle=orthogonalEdgeStyle;rounded=0;orthogonalLoop=1;jettySize=auto;html=1;exitX=1;exitY=0.5;exitDx=0;exitDy=0;entryX=0;entryY=0.5;entryDx=0;entryDy=0;" edge="1" parent="1" source="peSFcSjqjw_MBQDFK0Su-35" target="peSFcSjqjw_MBQDFK0Su-41">
                    <mxGeometry relative="1" as="geometry"/>
                </mxCell>
                <mxCell id="peSFcSjqjw_MBQDFK0Su-60" value="6" style="edgeLabel;html=1;align=center;verticalAlign=middle;resizable=0;points=[];" vertex="1" connectable="0" parent="peSFcSjqjw_MBQDFK0Su-47">
                    <mxGeometry x="-0.1316" y="7" relative="1" as="geometry">
                        <mxPoint as="offset"/>
                    </mxGeometry>
                </mxCell>
                <mxCell id="peSFcSjqjw_MBQDFK0Su-51" value="12" style="edgeStyle=orthogonalEdgeStyle;rounded=0;orthogonalLoop=1;jettySize=auto;html=1;exitX=0.5;exitY=1;exitDx=0;exitDy=0;entryX=0.5;entryY=0;entryDx=0;entryDy=0;" edge="1" parent="1" source="peSFcSjqjw_MBQDFK0Su-49" target="peSFcSjqjw_MBQDFK0Su-40">
                    <mxGeometry relative="1" as="geometry"/>
                </mxCell>
                <mxCell id="peSFcSjqjw_MBQDFK0Su-49" value="Event Queue" style="rounded=1;whiteSpace=wrap;html=1;fillColor=#60a917;strokeColor=#2D7600;fontColor=#ffffff;" vertex="1" parent="1">
                    <mxGeometry x="805" y="460" width="120" height="40" as="geometry"/>
                </mxCell>
                <mxCell id="peSFcSjqjw_MBQDFK0Su-59" style="edgeStyle=orthogonalEdgeStyle;rounded=0;orthogonalLoop=1;jettySize=auto;html=1;exitX=1;exitY=0.5;exitDx=0;exitDy=0;entryX=0;entryY=0.5;entryDx=0;entryDy=0;" edge="1" parent="1" source="peSFcSjqjw_MBQDFK0Su-27" target="peSFcSjqjw_MBQDFK0Su-35">
                    <mxGeometry relative="1" as="geometry"/>
                </mxCell>
                <mxCell id="peSFcSjqjw_MBQDFK0Su-62" value="7" style="edgeLabel;html=1;align=center;verticalAlign=middle;resizable=0;points=[];" vertex="1" connectable="0" parent="peSFcSjqjw_MBQDFK0Su-59">
                    <mxGeometry x="0.3004" y="-2" relative="1" as="geometry">
                        <mxPoint as="offset"/>
                    </mxGeometry>
                </mxCell>
            </root>
        </mxGraphModel>
    </diagram>
    <diagram id="lNls2n0VNumWkjICTYDc" name="Page-2">
        <mxGraphModel dx="1376" dy="536" grid="1" gridSize="10" guides="1" tooltips="1" connect="1" arrows="1" fold="1" page="1" pageScale="1" pageWidth="1654" pageHeight="1169" math="0" shadow="0">
            <root>
                <mxCell id="hLcVo2gpunKUZtV8wGc0-0"/>
                <mxCell id="hLcVo2gpunKUZtV8wGc0-1" parent="hLcVo2gpunKUZtV8wGc0-0"/>
                <mxCell id="hLcVo2gpunKUZtV8wGc0-2" value="CanChannel" style="swimlane;fontStyle=1;align=center;verticalAlign=top;childLayout=stackLayout;horizontal=1;startSize=26;horizontalStack=0;resizeParent=1;resizeParentMax=0;resizeLast=0;collapsible=1;marginBottom=0;" vertex="1" parent="hLcVo2gpunKUZtV8wGc0-1">
                    <mxGeometry x="250" y="120" width="160" height="86" as="geometry"/>
                </mxCell>
                <mxCell id="hLcVo2gpunKUZtV8wGc0-3" value="+ field: type" style="text;strokeColor=none;fillColor=none;align=left;verticalAlign=top;spacingLeft=4;spacingRight=4;overflow=hidden;rotatable=0;points=[[0,0.5],[1,0.5]];portConstraint=eastwest;" vertex="1" parent="hLcVo2gpunKUZtV8wGc0-2">
                    <mxGeometry y="26" width="160" height="26" as="geometry"/>
                </mxCell>
                <mxCell id="hLcVo2gpunKUZtV8wGc0-4" value="" style="line;strokeWidth=1;fillColor=none;align=left;verticalAlign=middle;spacingTop=-1;spacingLeft=3;spacingRight=3;rotatable=0;labelPosition=right;points=[];portConstraint=eastwest;" vertex="1" parent="hLcVo2gpunKUZtV8wGc0-2">
                    <mxGeometry y="52" width="160" height="8" as="geometry"/>
                </mxCell>
                <mxCell id="hLcVo2gpunKUZtV8wGc0-5" value="+ method(type): type" style="text;strokeColor=none;fillColor=none;align=left;verticalAlign=top;spacingLeft=4;spacingRight=4;overflow=hidden;rotatable=0;points=[[0,0.5],[1,0.5]];portConstraint=eastwest;" vertex="1" parent="hLcVo2gpunKUZtV8wGc0-2">
                    <mxGeometry y="60" width="160" height="26" as="geometry"/>
                </mxCell>
            </root>
        </mxGraphModel>
    </diagram>
</mxfile>